<mxfile host="www.draw.io" modified="2019-11-09T18:46:06.991Z" agent="Mozilla/5.0 (Windows NT 10.0; Win64; x64) AppleWebKit/537.36 (KHTML, like Gecko) Chrome/77.0.3865.90 Safari/537.36" etag="XSbqBZ8lJ8DN4YSgdokY" version="12.2.3" type="github" pages="1">
  <diagram name="Page-1" id="e7e014a7-5840-1c2e-5031-d8a46d1fe8dd">
    <mxGraphModel dx="1090" dy="706" grid="1" gridSize="10" guides="1" tooltips="1" connect="1" arrows="1" fold="1" page="1" pageScale="1" pageWidth="1169" pageHeight="826" background="#ffffff" math="0" shadow="0">
      <root>
        <mxCell id="0"/>
        <mxCell id="1" parent="0"/>
        <mxCell id="3" value="Nurse" style="swimlane;whiteSpace=wrap" parent="1" vertex="1">
          <mxGeometry x="444" y="110" width="280" height="1060" as="geometry"/>
        </mxCell>
        <mxCell id="13" value="" style="ellipse;shape=startState;fillColor=#000000;strokeColor=#ff0000;" parent="3" vertex="1">
          <mxGeometry x="60" y="40" width="30" height="30" as="geometry"/>
        </mxCell>
        <mxCell id="14" value="" style="edgeStyle=elbowEdgeStyle;elbow=horizontal;verticalAlign=bottom;endArrow=open;endSize=8;strokeColor=#000000;endFill=1;rounded=0" parent="3" source="13" target="15" edge="1">
          <mxGeometry x="40" y="20" as="geometry">
            <mxPoint x="55" y="90" as="targetPoint"/>
          </mxGeometry>
        </mxCell>
        <mxCell id="zlGqNMjBUAv9cToeVqkP-49" style="edgeStyle=orthogonalEdgeStyle;rounded=0;orthogonalLoop=1;jettySize=auto;html=1;exitX=0.5;exitY=1;exitDx=0;exitDy=0;entryX=0.5;entryY=0;entryDx=0;entryDy=0;" edge="1" parent="3" source="15" target="zlGqNMjBUAv9cToeVqkP-44">
          <mxGeometry relative="1" as="geometry"/>
        </mxCell>
        <mxCell id="15" value="Assess Patient" style="" parent="3" vertex="1">
          <mxGeometry x="20" y="110" width="110" height="30" as="geometry"/>
        </mxCell>
        <mxCell id="zlGqNMjBUAv9cToeVqkP-44" value="Register Patient" style="" vertex="1" parent="3">
          <mxGeometry x="20" y="162" width="110" height="30" as="geometry"/>
        </mxCell>
        <mxCell id="zlGqNMjBUAv9cToeVqkP-47" style="edgeStyle=orthogonalEdgeStyle;rounded=0;orthogonalLoop=1;jettySize=auto;html=1;entryX=1;entryY=0.25;entryDx=0;entryDy=0;" edge="1" parent="3" source="zlGqNMjBUAv9cToeVqkP-45" target="zlGqNMjBUAv9cToeVqkP-46">
          <mxGeometry relative="1" as="geometry"/>
        </mxCell>
        <mxCell id="zlGqNMjBUAv9cToeVqkP-45" value="allocate room" style="" vertex="1" parent="3">
          <mxGeometry x="20" y="214" width="110" height="30" as="geometry"/>
        </mxCell>
        <mxCell id="2" value="Physician" style="swimlane;whiteSpace=wrap" parent="3" vertex="1">
          <mxGeometry x="-300" width="300" height="1060" as="geometry"/>
        </mxCell>
        <mxCell id="5" value="" style="ellipse;shape=startState;fillColor=#000000;strokeColor=#ff0000;" parent="2" vertex="1">
          <mxGeometry x="100" y="40" width="30" height="30" as="geometry"/>
        </mxCell>
        <mxCell id="6" value="" style="edgeStyle=elbowEdgeStyle;elbow=horizontal;verticalAlign=bottom;endArrow=open;endSize=8;strokeColor=#000000;endFill=1;rounded=0" parent="2" source="5" edge="1">
          <mxGeometry x="100" y="40" as="geometry">
            <mxPoint x="235.5" y="282" as="targetPoint"/>
          </mxGeometry>
        </mxCell>
        <mxCell id="zlGqNMjBUAv9cToeVqkP-46" value="Meet Patient" style="rounded=0;whiteSpace=wrap;html=1;" vertex="1" parent="2">
          <mxGeometry x="242.5" y="266" width="120" height="60" as="geometry"/>
        </mxCell>
        <mxCell id="zlGqNMjBUAv9cToeVqkP-50" value="" style="shape=line;html=1;strokeWidth=6;strokeColor=#ff0000;" vertex="1" parent="2">
          <mxGeometry x="95.5" y="362" width="200" height="10" as="geometry"/>
        </mxCell>
        <mxCell id="zlGqNMjBUAv9cToeVqkP-56" value="access patient" style="html=1;" vertex="1" parent="2">
          <mxGeometry x="130" y="392" width="110" height="28" as="geometry"/>
        </mxCell>
        <mxCell id="zlGqNMjBUAv9cToeVqkP-57" value="plan actions" style="html=1;" vertex="1" parent="2">
          <mxGeometry x="130" y="442" width="110" height="28" as="geometry"/>
        </mxCell>
        <mxCell id="zlGqNMjBUAv9cToeVqkP-58" value="assign delegate actions" style="html=1;" vertex="1" parent="2">
          <mxGeometry x="116" y="492" width="138" height="28" as="geometry"/>
        </mxCell>
        <mxCell id="zlGqNMjBUAv9cToeVqkP-64" value="" style="shape=line;html=1;strokeWidth=6;strokeColor=#ff0000;" vertex="1" parent="2">
          <mxGeometry x="100" y="540" width="200" height="10" as="geometry"/>
        </mxCell>
        <mxCell id="zlGqNMjBUAv9cToeVqkP-68" value="" style="shape=line;html=1;strokeWidth=6;strokeColor=#ff0000;" vertex="1" parent="2">
          <mxGeometry x="95.5" y="580" width="200" height="10" as="geometry"/>
        </mxCell>
        <mxCell id="zlGqNMjBUAv9cToeVqkP-52" value="" style="shape=line;html=1;strokeWidth=6;strokeColor=#ff0000;" vertex="1" parent="3">
          <mxGeometry x="-10" y="362" width="200" height="10" as="geometry"/>
        </mxCell>
        <mxCell id="zlGqNMjBUAv9cToeVqkP-59" value="document action plan" style="html=1;" vertex="1" parent="3">
          <mxGeometry x="36" y="392" width="155" height="28" as="geometry"/>
        </mxCell>
        <mxCell id="zlGqNMjBUAv9cToeVqkP-60" value="document who&lt;br&gt;actions are&amp;nbsp;&lt;br&gt;assigned to" style="html=1;" vertex="1" parent="3">
          <mxGeometry x="36" y="440" width="155" height="60" as="geometry"/>
        </mxCell>
        <mxCell id="zlGqNMjBUAv9cToeVqkP-65" value="" style="shape=line;html=1;strokeWidth=6;strokeColor=#ff0000;" vertex="1" parent="3">
          <mxGeometry x="2.5" y="540" width="200" height="10" as="geometry"/>
        </mxCell>
        <mxCell id="zlGqNMjBUAv9cToeVqkP-69" value="" style="shape=line;html=1;strokeWidth=6;strokeColor=#ff0000;" vertex="1" parent="3">
          <mxGeometry x="-10" y="580" width="210" height="10" as="geometry"/>
        </mxCell>
        <mxCell id="zlGqNMjBUAv9cToeVqkP-71" value="Actions" style="rhombus;whiteSpace=wrap;html=1;fillColor=#ffffc0;strokeColor=#ff0000;" vertex="1" parent="3">
          <mxGeometry x="71.5" y="620" width="80" height="40" as="geometry"/>
        </mxCell>
        <mxCell id="zlGqNMjBUAv9cToeVqkP-72" value="no" style="edgeStyle=orthogonalEdgeStyle;html=1;align=left;verticalAlign=bottom;endArrow=open;endSize=8;strokeColor=#ff0000;" edge="1" source="zlGqNMjBUAv9cToeVqkP-71" parent="3">
          <mxGeometry x="-1" relative="1" as="geometry">
            <mxPoint x="223.5" y="833" as="targetPoint"/>
          </mxGeometry>
        </mxCell>
        <mxCell id="zlGqNMjBUAv9cToeVqkP-73" value="yes" style="edgeStyle=orthogonalEdgeStyle;html=1;align=left;verticalAlign=top;endArrow=open;endSize=8;strokeColor=#ff0000;" edge="1" source="zlGqNMjBUAv9cToeVqkP-71" parent="3">
          <mxGeometry x="-1" relative="1" as="geometry">
            <mxPoint x="111.5" y="720" as="targetPoint"/>
          </mxGeometry>
        </mxCell>
        <mxCell id="zlGqNMjBUAv9cToeVqkP-92" value="perform action" style="html=1;" vertex="1" parent="3">
          <mxGeometry x="56.5" y="723" width="110" height="50" as="geometry"/>
        </mxCell>
        <mxCell id="zlGqNMjBUAv9cToeVqkP-48" style="edgeStyle=orthogonalEdgeStyle;rounded=0;orthogonalLoop=1;jettySize=auto;html=1;exitX=0.5;exitY=1;exitDx=0;exitDy=0;" edge="1" parent="1" source="zlGqNMjBUAv9cToeVqkP-44">
          <mxGeometry relative="1" as="geometry">
            <mxPoint x="520" y="340" as="targetPoint"/>
          </mxGeometry>
        </mxCell>
      </root>
    </mxGraphModel>
  </diagram>
</mxfile>
